<svg version="1.1" id="Layer_1" xmlns="http://www.w3.org/2000/svg" xmlns:xlink="http://www.w3.org/1999/xlink" x="0px" y="0px" viewBox="0 0 220 55.4" style="enable-background:new 0 0 220 55.4;" xml:space="preserve">
 <style type="text/css">
  .st0{fill:#FF5800;}
	.st1{fill:url(#SVGID_1_);}
	.st2{fill:url(#SVGID_2_);}
	.st3{fill:url(#SVGID_3_);}
	.st4{fill:url(#SVGID_4_);}
 </style>
 <g id="Layer_2-10">
  <g id="logo-2-2">
   <path class="st0" d="M76.4,22.4c-1.3,0-2.5,0.1-3.7,0.4c-1,0.2-2,0.5-2.9,1l0.3,3.6c0.9-0.3,1.9-0.5,2.9-0.6
			c0.9-0.1,1.7-0.2,2.6-0.2c3.3,0,4.9,1.3,4.9,3.8v0.8c-1.1-0.2-2.1-0.3-3.2-0.2c-2.4-0.1-4.8,0.5-6.8,1.9c-1.6,1.2-2.6,3.2-2.5,5.3
			c0,4.6,3.2,6.9,9.5,6.9c2.7,0,5.4-0.4,8-1.2V30.6C85.5,25.2,82.4,22.4,76.4,22.4z M80.5,40.9c-1,0.3-2.1,0.4-3.2,0.4
			c-3,0-4.5-1.1-4.5-3.2s1.6-3.4,4.9-3.4c0.9,0,1.8,0,2.7,0.2L80.5,40.9L80.5,40.9z">
   </path>
   <polygon class="st0" points="87.7,23 93.2,23 98.5,39.6 103.9,23 109.1,23 100.9,44.5 95.9,44.5 		">
   </polygon>
   <path class="st0" d="M118.6,22.4c-1.3,0-2.5,0.1-3.7,0.4c-1,0.2-2,0.5-2.9,1l0.4,3.6c0.9-0.3,1.9-0.5,2.9-0.6
			c0.9-0.1,1.7-0.2,2.6-0.2c3.3,0,4.9,1.2,4.9,3.8v0.8c-1.1-0.2-2.2-0.2-3.2-0.2c-2.4-0.1-4.8,0.5-6.8,1.9c-1.6,1.2-2.6,3.2-2.5,5.3
			c0,4.6,3.2,6.9,9.5,6.9c2.7,0,5.4-0.4,8-1.2V30.6C127.7,25.2,124.7,22.4,118.6,22.4z M122.8,40.9c-1,0.3-2.1,0.4-3.2,0.4
			c-3,0-4.5-1.1-4.5-3.2s1.6-3.4,4.9-3.4c0.9,0,1.8,0,2.7,0.2L122.8,40.9L122.8,40.9z">
   </path>
   <path class="st0" d="M146.8,31.8c0-2-0.4-3.3-1.1-4s-2.1-1.1-4-1.1c-0.6,0-1.1,0.1-1.6,0.2c-0.6,0.1-1.2,0.2-1.8,0.4v17.3h-5V24
			c1.4-0.5,2.9-1,4.4-1.2c1.6-0.3,3.2-0.4,4.8-0.4c6.3,0,9.4,2.8,9.4,8.5v13.6h-5L146.8,31.8z">
   </path>
   <path class="st0" d="M164.1,22.4c-1.3,0-2.5,0.1-3.7,0.4c-1,0.2-2,0.5-2.9,1l0.4,3.6c0.9-0.3,1.9-0.5,2.9-0.6
			c0.9-0.1,1.7-0.2,2.6-0.2c3.3,0,4.9,1.2,4.9,3.8v0.8c-1.1-0.2-2.1-0.2-3.2-0.2c-2.4-0.1-4.8,0.5-6.8,1.9c-1.6,1.3-2.6,3.2-2.5,5.3
			c0,4.6,3.2,6.9,9.5,6.9c2.7,0,5.4-0.4,8-1.2V30.6C173.2,25.2,170.1,22.4,164.1,22.4z M168.2,40.9c-1,0.3-2.1,0.4-3.1,0.4
			c-3,0-4.5-1.1-4.5-3.2s1.6-3.4,4.9-3.4c0.9,0,1.8,0,2.7,0.2L168.2,40.9L168.2,40.9z">
   </path>
   <path class="st0" d="M191.8,14.7v8.2c-1.2-0.3-2.4-0.5-3.6-0.4c-3-0.1-5.9,1-8,3.2c-2.1,2.3-3.2,5.3-3.1,8.4c0,3.6,1,6.3,3,8.2
			s4.9,2.8,8.8,2.8c2.7,0,5.3-0.4,7.9-1.2V14.7H191.8z M191.8,40.6c-1,0.3-2,0.4-3.1,0.3c-4.3,0-6.4-2.3-6.4-7
			c-0.1-2,0.5-3.9,1.6-5.5c1.2-1.3,2.9-2,4.7-1.9c1.1,0,2.2,0.2,3.2,0.5V40.6z">
   </path>
   <path class="st0" d="M220,32.6c0.1-2.7-0.7-5.4-2.5-7.4c-1.7-1.9-4.2-2.9-6.7-2.7c-2.8-0.1-5.5,1-7.4,3.1
			c-1.8,2.1-2.7,4.9-2.7,8.4s1,6.3,2.9,8.2s4.7,2.9,8.3,2.9c2.3,0,4.6-0.4,6.7-1.2l-0.5-3.8c-1.9,0.6-3.8,0.9-5.8,0.9
			c-4.2,0-6.4-1.9-6.5-5.7h14.1L220,32.6L220,32.6z M205.9,31.5c0.1-1.4,0.6-2.8,1.5-3.9c0.8-0.9,2-1.4,3.3-1.4
			c1.2,0,2.4,0.5,3.2,1.4c0.9,1.1,1.3,2.5,1.2,3.9H205.9z">
   </path>
   <linearGradient id="SVGID_1_" gradientUnits="userSpaceOnUse" x1="-0.7473" y1="2043.5186" x2="49.7628" y2="2029.9865" gradientTransform="matrix(1 0 0 1 0 -2015.52)">
    <stop offset="0.2" style="stop-color:#FF5800">
    </stop>
    <stop offset="0.24" style="stop-color:#FF7000">
    </stop>
    <stop offset="0.32" style="stop-color:#FF9500">
    </stop>
    <stop offset="0.4" style="stop-color:#FFB200">
    </stop>
    <stop offset="0.47" style="stop-color:#FFC600">
    </stop>
    <stop offset="0.55" style="stop-color:#FFD300">
    </stop>
    <stop offset="0.62" style="stop-color:#FFD700">
    </stop>
    <stop offset="0.66" style="stop-color:#FFCE00">
    </stop>
    <stop offset="0.72" style="stop-color:#FFB600">
    </stop>
    <stop offset="0.81" style="stop-color:#FF8E00">
    </stop>
    <stop offset="0.9" style="stop-color:#FF5800">
    </stop>
   </linearGradient>
   <path class="st1" d="M14.5,13.8c-1.7,3.3-3.1,6-4.1,7.9c-0.9,1.7-1.8,3.3-2.9,4.8c-0.8,1.1-1.7,2.1-2.8,3
			c-1.2,0.9-2.5,1.8-3.8,2.6L0,30.8c0.9-0.7,1.8-1.4,2.6-2.1c0.9-0.9,1.8-1.9,2.5-2.9c1.1-1.6,2.1-3.3,3.1-5c1.2-2,2.6-4.8,4.3-8.3
			c1-2.2,2.2-4.2,3.5-6.2c0.9-1.4,2-2.7,3.2-3.8c0.9-0.8,1.9-1.5,3-1.9C24-0.2,26-0.2,27.8,0.7c1.2,0.6,2.2,1.5,3,2.5
			c1.4,1.7,2.6,3.5,3.7,5.4c1.4,2.3,3,5.4,4.8,9.3c1,2.1,2.1,4.2,3.4,6.2c0.9,1.5,2,2.9,3.2,4.1c1.1,1.1,2.3,1.9,3.6,2.6
			c1.5,0.7,3,1.3,4.5,1.8l1.1,1.8c-1.9-0.2-3.7-0.6-5.5-1.2c-1.6-0.6-3.2-1.5-4.5-2.6c-1.5-1.4-2.9-2.9-4-4.6
			c-1.5-2.3-2.8-4.6-4-7.1c-1.7-3.4-3.2-6.2-4.3-8.4c-0.9-1.7-2-3.4-3.2-5c-0.7-1-1.5-1.8-2.5-2.4c-0.7-0.4-1.4-0.6-2.2-0.7
			c-0.8,0-1.6,0.1-2.3,0.5c-0.9,0.5-1.7,1.1-2.4,1.8c-1,1.1-1.9,2.3-2.6,3.5C16.6,9.7,15.6,11.6,14.5,13.8z">
   </path>
   <linearGradient id="SVGID_2_" gradientUnits="userSpaceOnUse" x1="1.06" y1="2048.1592" x2="53.98" y2="2048.1592" gradientTransform="matrix(1 0 0 1 0 -2015.52)">
    <stop offset="9.000000e-02" style="stop-color:#FF5800">
    </stop>
    <stop offset="0.19" style="stop-color:#FF7907">
    </stop>
    <stop offset="0.31" style="stop-color:#FF990E">
    </stop>
    <stop offset="0.4" style="stop-color:#FFAD12">
    </stop>
    <stop offset="0.47" style="stop-color:#FFB414">
    </stop>
    <stop offset="0.53" style="stop-color:#FFAD12">
    </stop>
    <stop offset="0.62" style="stop-color:#FF980E">
    </stop>
    <stop offset="0.73" style="stop-color:#FF7707">
    </stop>
    <stop offset="0.82" style="stop-color:#FF5800">
    </stop>
   </linearGradient>
   <path class="st2" d="M39.8,35.5c2.5,0.1,5,0,7.4-0.4c2.2-0.3,4.4-0.8,6.5-1.5l0.3,1.3c-3.5,2.2-8.2,3.1-14.3,2.9
			c-2.4-0.1-4.8-0.4-7.2-1c-1.8-0.5-3.6-1.1-5.3-1.9c-1.2-0.5-2.3-1-3.4-1.6c-1-0.6-2.1-1.1-3.2-1.6s-2.2-0.9-3.4-1.2
			c-1.2-0.3-2.4-0.5-3.6-0.6c-2-0.1-3.9,0.1-5.8,0.4c-2,0.4-3.9,0.9-5.8,1.6l-0.8-1l1.6-0.8c1.6-0.9,3.4-1.6,5.2-2
			c1.9-0.5,3.8-0.7,5.8-0.6c1.4,0,2.8,0.2,4.1,0.6c1.2,0.3,2.4,0.8,3.5,1.3s2.2,1.1,3.4,1.7s2.3,1.2,3.5,1.7c1.6,0.7,3.3,1.3,5,1.8
			C35.3,35.1,37.5,35.4,39.8,35.5z">
   </path>
   <linearGradient id="SVGID_3_" gradientUnits="userSpaceOnUse" x1="1.2874" y1="2040.251" x2="55.4585" y2="2051.7649" gradientTransform="matrix(1 0 0 1 0 -2015.52)">
    <stop offset="0.5" style="stop-color:#FF5800">
    </stop>
    <stop offset="0.64" style="stop-color:#CE056A;stop-opacity:0.99">
    </stop>
    <stop offset="0.76" style="stop-color:#CF0768;stop-opacity:0.99">
    </stop>
    <stop offset="0.81" style="stop-color:#D20D60;stop-opacity:0.99">
    </stop>
    <stop offset="0.85" style="stop-color:#D81753;stop-opacity:0.99">
    </stop>
    <stop offset="0.88" style="stop-color:#E12541;stop-opacity:0.99">
    </stop>
    <stop offset="0.91" style="stop-color:#EC3829">
    </stop>
    <stop offset="0.94" style="stop-color:#F94E0C">
    </stop>
    <stop offset="0.95" style="stop-color:#FF5800">
    </stop>
   </linearGradient>
   <path class="st3" d="M43.3,17.3c-0.9,0-1.8,0.2-2.5,0.6c-1.1,0.7-2,1.5-2.8,2.5c-1.3,1.6-2.6,3.3-3.7,5c-1.4,2.1-3.2,4.8-5.2,8.2
			c-2.8,4.5-5.5,7.8-7.9,9.8c-2.1,1.9-4.8,2.9-7.6,2.9c-2.8-0.1-5.5-1.5-7.9-4.2C2.9,38.8,1,35,0,30.8l2.3,0.4
			c1,3.3,2.7,6.4,4.9,9.1c2,2.3,4.1,3.4,6.3,3.5c2.3,0,4.6-1,6.3-2.6c2.8-2.6,5.1-5.6,7-8.9c2.3-3.7,4.2-6.7,5.8-9
			c1.2-1.9,2.6-3.7,4.1-5.4c0.9-1.1,2-1.9,3.3-2.6c1-0.4,2.2-0.6,3.3-0.6c2.7,0.1,5,1.7,7.1,4.8s3.9,7.8,5.5,14.2l-2.4-0.9
			c-1.1-4.1-2.7-8-4.8-11.6C47,18.7,45.2,17.4,43.3,17.3z">
   </path>
   <linearGradient id="SVGID_4_" gradientUnits="userSpaceOnUse" x1="3.459" y1="2060.8289" x2="56.5606" y2="2053.3687" gradientTransform="matrix(1 0 0 1 0 -2015.52)">
    <stop offset="0" style="stop-color:#FF5800">
    </stop>
    <stop offset="6.000000e-02" style="stop-color:#FC5400">
    </stop>
    <stop offset="0.13" style="stop-color:#F54700">
    </stop>
    <stop offset="0.19" style="stop-color:#E83300">
    </stop>
    <stop offset="0.26" style="stop-color:#D61600">
    </stop>
    <stop offset="0.3" style="stop-color:#C80000">
    </stop>
    <stop offset="0.48" style="stop-color:#C80000">
    </stop>
    <stop offset="0.91" style="stop-color:#FF5800">
    </stop>
   </linearGradient>
   <path class="st4" d="M34.3,53.1c1.3,0,2.6-0.4,3.7-1.2c1.8-1.5,3.3-3.1,4.6-5c1.4-1.9,2.6-3.4,3.6-4.7c0.9-1.2,1.8-2.3,2.7-3.3
			s1.7-1.8,2.5-2.7s1.9-1.9,3.2-3.2l1.5,0.8c-1.2,1.3-2.2,2.5-3,3.4s-1.6,1.9-2.4,2.9s-1.6,2.1-2.6,3.3l-3.6,4.7
			c-1.5,2.1-3.3,4-5.3,5.7c-1.5,1.1-3.2,1.6-5.1,1.6c-0.9,0-1.8-0.2-2.7-0.5c-1-0.4-2-1-2.8-1.7c-1.3-1.1-2.6-2.3-3.7-3.6
			c-1.4-1.6-3.2-3.6-5.4-6.1c-1.7-1.9-3.2-3.5-4.5-4.8c-1.2-1.2-2.6-2.2-4-3.1c-1.3-0.8-2.7-1.4-4.2-1.8c-1.7-0.5-3.4-0.8-5.1-1
			L2.3,31c1.8,0.1,3.6,0.4,5.4,0.8c1.6,0.3,3.1,0.9,4.5,1.7c1.5,0.9,3,1.9,4.3,3.2c1.7,1.6,3.3,3.3,4.8,5c2.2,2.5,4,4.5,5.4,6
			s2.5,2.6,3.4,3.4c0.7,0.6,1.5,1.2,2.3,1.6C33,53,33.6,53.1,34.3,53.1z">
   </path>
  </g>
 </g>
</svg>