<svg xmlns="http://www.w3.org/2000/svg" width="32" height="32" id="up-arrow"><path fill="#7b0ea4" d="M17 2C8.716 2 2 8.716 2 17s6.716 15 15 15 15-6.716 15-15S25.284 2 17 2zm7.452 21.808a1.007 1.007 0 0 1-1.422 0l-5.992-5.3-5.992 5.3a1.007 1.007 0 0 1-1.422-1.422l6.69-5.918c.2-.2.462-.296.724-.292a.986.986 0 0 1 .724.29l6.69 5.918c.394.394.394 1.03 0 1.424zm0-7.172a1.007 1.007 0 0 1-1.422 0l-5.994-5.302-5.992 5.302a1.007 1.007 0 0 1-1.422-1.422l6.69-5.918c.2-.2.462-.296.724-.292a.987.987 0 0 1 .726.29l6.69 5.918c.394.394.394 1.03 0 1.424z"></path></svg>